Coordinates
version=1
nRows=23
nColumns=38
inDegrees=no

Units are S.I. units (second, meters, Newtons, ...)
If the header above contains a line with 'inDegrees', this indicates whether rotational values are in degrees (yes) or radians (no).

endheader
time	pelvis_tilt	pelvis_list	pelvis_rotation	pelvis_tx	pelvis_ty	pelvis_tz	hip_flexion_r	hip_adduction_r	hip_rotation_r	knee_angle_r	ankle_angle_r	subtalar_angle_r	mtp_angle_r	hip_flexion_l	hip_adduction_l	hip_rotation_l	knee_angle_l	ankle_angle_l	subtalar_angle_l	mtp_angle_l	lumbar_extension	lumbar_bending	lumbar_rotation	arm_flex_r	arm_add_r	arm_rot_r	elbow_flex_r	pro_sup_r	wrist_flex_r	wrist_dev_r	arm_flex_l	arm_add_l	arm_rot_l	elbow_flex_l	pro_sup_l	wrist_flex_l	wrist_dev_l
0	-0.381727	1.2814	-1.08275	1.00664	1.9577	0.938146	0.012235	0.0868003	-0.25136	0.511005	-0.200025	0	0	-0.288872	-0.272356	-0.181474	1.07271	-0.38783	0	0	-0.420097	0.218447	-0.196818	-0.260922	-0.237048	-0.207303	0.966598	0.468308	0	0	-0.0793034	-0.314508	0.116522	0.939403	1.46241	0	0
0.01	-0.379905	1.27182	-1.08667	1.00542	1.94748	0.939999	-0.0219354	0.099968	-0.237048	0.479076	-0.201938	0	0	-0.265284	-0.29033	-0.196094	1.12809	-0.364751	0	0	-0.428204	0.219197	-0.192188	-0.262074	-0.241067	-0.198718	0.966895	0.453994	0	0	-0.0891768	-0.314416	0.114677	0.940382	1.46566	0	0
0.02	-0.360902	1.26396	-1.10636	1.00425	1.93757	0.94205	-0.0508804	0.102484	-0.234956	0.465817	-0.200533	0	0	-0.244899	-0.291161	-0.188685	1.17111	-0.330834	0	0	-0.437238	0.215806	-0.188496	-0.264736	-0.243651	-0.193431	0.968398	0.444226	0	0	-0.0954436	-0.313737	0.113635	0.937941	1.46509	0	0
0.03	-0.439682	1.30964	-1.03614	1.00331	1.925	0.941569	-0.0111385	0.102843	-0.217006	0.464538	-0.194832	0	0	-0.158776	-0.284629	-0.174467	1.21666	-0.281928	0	0	-0.370753	0.204692	-0.179784	-0.253644	-0.245538	-0.181827	0.91119	0.433643	0	0	-0.0865627	-0.280087	0.0945156	0.864701	1.55339	0	0
0.04	-0.419252	1.30724	-1.05883	1.00215	1.91516	0.943273	-0.0326325	0.102019	-0.216639	0.458454	-0.188962	0	0	-0.133324	-0.281411	-0.168903	1.25043	-0.259396	0	0	-0.375229	0.196862	-0.17681	-0.2508	-0.242892	-0.180627	0.903489	0.431161	0	0	-0.0957931	-0.277503	0.0845934	0.863893	1.56474	0	0
0.05	-0.398409	1.30469	-1.08201	1.00111	1.90541	0.944979	-0.0551244	0.100938	-0.216567	0.44983	-0.183697	0	0	-0.10846	-0.27672	-0.162975	1.27821	-0.235177	0	0	-0.379958	0.188973	-0.173988	-0.247865	-0.240468	-0.179324	0.895908	0.430121	0	0	-0.104982	-0.275389	0.0754724	0.863439	1.5708	0	0
0.06	-0.205408	1.2422	-1.28884	0.996862	1.89638	0.957253	-0.176935	0.0779214	-0.206537	0.395967	-0.224107	0	0	-0.183466	-0.263395	-0.216558	1.24382	-0.274882	0	0	-0.467824	0.142258	-0.170791	-0.219363	-0.225674	-0.165975	0.864826	0.438326	0	0	-0.119564	-0.302735	0.0822538	0.897514	1.47907	0	0
0.07	-0.356771	1.30066	-1.12993	0.999258	1.88621	0.948221	-0.100541	0.0980815	-0.213708	0.425113	-0.180202	0	0	-0.0601566	-0.263946	-0.153469	1.31344	-0.191648	0	0	-0.388688	0.173763	-0.170176	-0.240636	-0.236897	-0.175243	0.881762	0.431577	0	0	-0.129083	-0.289663	0.0892819	0.889813	1.47023	0	0
0.08	-0.336531	1.30146	-1.1546	0.998385	1.87677	0.949529	-0.118109	0.0939151	-0.214932	0.417542	-0.175578	0	0	-0.0344458	-0.255285	-0.150427	1.32173	-0.178687	0	0	-0.390365	0.164995	-0.165078	-0.238826	-0.235569	-0.174263	0.875132	0.430385	0	0	-0.134798	-0.288117	0.0870501	0.886124	1.46754	0	0
0.09	-0.312599	1.30053	-1.18363	0.997399	1.86746	0.950884	-0.138359	0.089768	-0.213021	0.407193	-0.172489	0	0	-0.0124728	-0.24679	-0.150259	1.32318	-0.165799	0	0	-0.394391	0.155181	-0.159773	-0.236574	-0.234467	-0.172168	0.868695	0.429438	0	0	-0.140967	-0.288422	0.0853445	0.883003	1.46497	0	0
0.1	-0.286511	1.29922	-1.21485	0.996465	1.85814	0.952194	-0.15951	0.0851213	-0.210316	0.395234	-0.170272	0	0	0.00732529	-0.238013	-0.152446	1.3181	-0.154972	0	0	-0.39889	0.144829	-0.154753	-0.233965	-0.233259	-0.169871	0.862087	0.428752	0	0	-0.147121	-0.289076	0.0839737	0.879946	1.46242	0	0
0.11	-0.25897	1.29826	-1.24824	0.995828	1.84902	0.953257	-0.176647	0.0777289	-0.208938	0.397383	-0.175803	0	0	0.0275905	-0.226873	-0.162785	1.31912	-0.145018	0	0	-0.403624	0.13437	-0.149332	-0.231362	-0.232983	-0.167483	0.857244	0.428936	0	0	-0.152657	-0.289075	0.0827552	0.87752	1.45929	0	0
0.12	-0.237453	1.29519	-1.27453	0.994842	1.83987	0.954358	-0.19742	0.0743509	-0.208816	0.387859	-0.175296	0	0	0.0422488	-0.221846	-0.161676	1.29194	-0.135998	0	0	-0.409394	0.125857	-0.14401	-0.228626	-0.231938	-0.164945	0.852008	0.429795	0	0	-0.157629	-0.289698	0.0817609	0.874875	1.45635	0	0
0.13	-0.214404	1.28955	-1.30116	0.99424	1.83085	0.9554	-0.22135	0.0704411	-0.20894	0.376633	-0.174602	0	0	0.0543396	-0.215105	-0.166817	1.27043	-0.128315	0	0	-0.41811	0.118266	-0.139902	-0.226377	-0.231396	-0.163298	0.84969	0.430603	0	0	-0.162528	-0.290782	0.0814537	0.87376	1.45387	0	0
0.14	-0.188097	1.27629	-1.331	0.993667	1.82198	0.956744	-0.256921	0.0682967	-0.205904	0.355795	-0.176832	0	0	0.0553908	-0.209811	-0.176286	1.24183	-0.120574	0	0	-0.435196	0.110048	-0.132795	-0.226552	-0.230775	-0.163196	0.851499	0.429342	0	0	-0.160549	-0.288615	0.0811854	0.854232	1.50875	0	0
0.15	-0.170863	1.27134	-1.35444	0.992979	1.81254	0.957389	-0.282151	0.0654591	-0.199714	0.340961	-0.175191	0	0	0.0632273	-0.204778	-0.189722	1.20901	-0.114347	0	0	-0.442634	0.10246	-0.125984	-0.226514	-0.230292	-0.163831	0.852065	0.428903	0	0	-0.166555	-0.284655	0.0709545	0.851315	1.52869	0	0
0.16	-0.157359	1.26763	-1.37381	0.99245	1.8031	0.95787	-0.305305	0.0629546	-0.192765	0.325562	-0.174811	0	0	0.0708324	-0.200122	-0.203785	1.17142	-0.109162	0	0	-0.449116	0.0965475	-0.125205	-0.222004	-0.230281	-0.161197	0.851223	0.430553	0	0	-0.183385	-0.288948	0.0648183	0.877413	1.46384	0	0
0.17	-0.143928	1.26121	-1.39067	0.992096	1.79388	0.958221	-0.332209	0.0614914	-0.189437	0.302432	-0.168013	0	0	0.0746436	-0.195566	-0.216431	1.1297	-0.105834	0	0	-0.457416	0.0910056	-0.12146	-0.220787	-0.229982	-0.160966	0.85244	0.429189	0	0	-0.188336	-0.291942	0.0695287	0.877507	1.45421	0	0
0.18	-0.134935	1.25572	-1.40311	0.991835	1.7846	0.958393	-0.35707	0.0610725	-0.18355	0.285429	-0.16922	0	0	0.0774322	-0.191693	-0.23028	1.08245	-0.105747	0	0	-0.464597	0.0866651	-0.116758	-0.220135	-0.22976	-0.161483	0.854059	0.427206	0	0	-0.192429	-0.293402	0.0721413	0.875887	1.44845	0	0
0.19	-0.126884	1.24989	-1.41428	0.991702	1.77566	0.958331	-0.380619	0.0603009	-0.177527	0.271551	-0.170079	0	0	0.0785762	-0.187315	-0.243943	1.03032	-0.108879	0	0	-0.47305	0.0831466	-0.111917	-0.220578	-0.23178	-0.159769	0.859123	0.42352	0	0	-0.195846	-0.294782	0.0740891	0.875455	1.44373	0	0
0.2	-0.121124	1.24494	-1.42309	0.991667	1.76648	0.958072	-0.402466	0.0594825	-0.172915	0.260075	-0.169772	0	0	0.078324	-0.183041	-0.257979	0.973652	-0.113315	0	0	-0.480203	0.0800313	-0.107834	-0.220155	-0.231698	-0.160054	0.863156	0.421724	0	0	-0.20024	-0.295608	0.074578	0.874762	1.43991	0	0
0.21	-0.113637	1.23358	-1.43319	0.99162	1.75736	0.957966	-0.432081	0.0591902	-0.168997	0.246523	-0.171295	0	0	0.0682742	-0.178514	-0.272438	0.911807	-0.122454	0	0	-0.49406	0.0766019	-0.0994493	-0.225148	-0.234398	-0.159987	0.873491	0.413497	0	0	-0.196091	-0.291624	0.0740194	0.852695	1.50229	0	0
0.22	-0.111584	1.23133	-1.43681	0.991781	1.74801	0.957228	-0.449437	0.0590811	-0.165078	0.238709	-0.169748	0	0	0.0677641	-0.172883	-0.284307	0.848796	-0.12879	0	0	-0.498124	0.0748304	-0.0968161	-0.225027	-0.233376	-0.162179	0.877645	0.411527	0	0	-0.200785	-0.287426	0.0639949	0.849282	1.52119	0	0
